<svg width="73" height="74" viewBox="0 0 73 74" fill="none" xmlns="http://www.w3.org/2000/svg">
<g filter="url(#filter0_d)">
<path d="M19.1953 62H11.1875V5.98438H19.1953L52.8672 49.4219V5.98438H60.875V62H52.8672L19.1953 18.5625V62Z" fill="black"/>
<path d="M19.1953 62V66H23.1953V62H19.1953ZM11.1875 62H7.18747V66H11.1875V62ZM11.1875 5.98438V1.98438H7.18747V5.98438H11.1875ZM19.1953 5.98438L22.3567 3.53373L21.1556 1.98438H19.1953V5.98438ZM52.8672 49.4219L49.7058 51.8725L56.8672 61.1109V49.4219H52.8672ZM52.8672 5.98438V1.98438H48.8672V5.98438H52.8672ZM60.875 5.98438H64.875V1.98438H60.875V5.98438ZM60.875 62V66H64.875V62H60.875ZM52.8672 62L49.7058 64.4506L50.9068 66H52.8672V62ZM19.1953 18.5625L22.3567 16.1119L15.1953 6.87351V18.5625H19.1953ZM19.1953 58H11.1875V66H19.1953V58ZM15.1875 62V5.98438H7.18747V62H15.1875ZM11.1875 9.98438H19.1953V1.98438H11.1875V9.98438ZM16.0339 8.43502L49.7058 51.8725L56.0285 46.9712L22.3567 3.53373L16.0339 8.43502ZM56.8672 49.4219V5.98438H48.8672V49.4219H56.8672ZM52.8672 9.98438H60.875V1.98438H52.8672V9.98438ZM56.875 5.98438V62H64.875V5.98438H56.875ZM60.875 58H52.8672V66H60.875V58ZM56.0285 59.5494L22.3567 16.1119L16.0339 21.0131L49.7058 64.4506L56.0285 59.5494ZM15.1953 18.5625V62H23.1953V18.5625H15.1953Z" fill="url(#paint0_linear)"/>
</g>
<defs>
<filter id="filter0_d" x="7.1875" y="1.98438" width="65.6875" height="72.0156" filterUnits="userSpaceOnUse" color-interpolation-filters="sRGB">
<feFlood flood-opacity="0" result="BackgroundImageFix"/>
<feColorMatrix in="SourceAlpha" type="matrix" values="0 0 0 0 0 0 0 0 0 0 0 0 0 0 0 0 0 0 127 0"/>
<feOffset dx="5" dy="5"/>
<feGaussianBlur stdDeviation="1.5"/>
<feColorMatrix type="matrix" values="0 0 0 0 0 0 0 0 0 0 0 0 0 0 0 0 0 0 0.25 0"/>
<feBlend mode="normal" in2="BackgroundImageFix" result="effect1_dropShadow"/>
<feBlend mode="normal" in="SourceGraphic" in2="effect1_dropShadow" result="shape"/>
</filter>
<linearGradient id="paint0_linear" x1="33" y1="3" x2="36" y2="93" gradientUnits="userSpaceOnUse">
<stop stop-color="#FF551F"/>
<stop offset="1" stop-color="white" stop-opacity="0"/>
</linearGradient>
</defs>
</svg>